<?xml version="1.0" encoding="UTF-8" standalone="no"?>
<!-- Created with Inkscape (http://www.inkscape.org/) -->

<svg
   width="76.708mm"
   height="40.470669mm"
   viewBox="0 0 76.708 40.470668"
   version="1.1"
   id="svg5"
   inkscape:version="1.1.2 (0a00cf5339, 2022-02-04)"
   sodipodi:docname="megoc-full-og.svg"
   xmlns:inkscape="http://www.inkscape.org/namespaces/inkscape"
   xmlns:sodipodi="http://sodipodi.sourceforge.net/DTD/sodipodi-0.dtd"
   xmlns="http://www.w3.org/2000/svg"
   xmlns:svg="http://www.w3.org/2000/svg">
  <sodipodi:namedview
     id="namedview7"
     pagecolor="#ffffff"
     bordercolor="#666666"
     borderopacity="1.0"
     inkscape:pageshadow="2"
     inkscape:pageopacity="0.0"
     inkscape:pagecheckerboard="0"
     inkscape:document-units="mm"
     showgrid="false"
     inkscape:zoom="3.299612"
     inkscape:cx="143.50172"
     inkscape:cy="101.67862"
     inkscape:window-width="1128"
     inkscape:window-height="955"
     inkscape:window-x="16"
     inkscape:window-y="72"
     inkscape:window-maximized="0"
     inkscape:current-layer="layer1" />
  <defs
     id="defs2" />
  <g
     inkscape:label="Layer 1"
     inkscape:groupmode="layer"
     id="layer1"
     transform="translate(23.394384,-125.96339)">
    <path
       style="fill:#afb0b5;fill-opacity:1;stroke-width:2.03438;stroke-linecap:round;stroke-linejoin:round"
       d="m 17.439708,136.53763 c -5.503966,-4.0025 -8.5265348,-9.11136 -8.4912011,-14.35216 0.032187,-4.77404 4.4659621,-17.73043 15.3461861,-44.844686 6.607396,-16.46608 9.268341,-22.168931 10.343999,-22.168931 1.708112,0 7.41834,3.464675 9.660009,5.8612 4.612515,4.931151 4.106571,8.958188 -3.065641,24.40084 -4.094543,8.816053 -6.303192,15.135657 -4.755289,13.606311 0.299636,-0.296044 3.970458,-5.68602 8.157382,-11.977723 11.879624,-17.851545 19.009314,-25.727592 26.754883,-29.55566 3.429444,-1.694923 4.852792,-2.089666 8.131879,-2.255252 11.463801,-0.578896 17.478421,8.054466 13.315815,19.113483 -0.746962,1.984497 -1.291952,3.793094 -1.211089,4.019103 0.08086,0.226009 1.96366,-1.780721 4.183991,-4.459399 6.490298,-7.830106 13.983098,-14.654449 18.589448,-16.931033 3.80096,-1.878537 4.14987,-1.949555 8.43195,-1.716273 4.75656,0.259131 7.10667,1.123088 9.76304,3.58912 2.4616,2.28523 3.24815,4.281978 3.20921,8.147046 -0.0454,4.504155 -1.09051,7.215743 -9.49555,24.636024 -8.72824,18.09013 -11.09769,24.14679 -11.11428,28.40969 -0.008,2.09193 0.84706,2.93353 2.98095,2.93353 2.98204,0 8.19084,-4.68667 14.35747,-12.91829 2.98386,-3.98306 12.13598,-18.223233 17.1501,-26.684572 2.98635,-5.039473 5.90264,-7.881932 10.02112,-9.767435 2.55148,-1.168106 3.93292,-1.378905 10.69527,-1.632034 l 7.76535,-0.290673 v 2.159517 c 0,2.500393 -1.38159,4.571396 -3.61502,5.418902 -0.82416,0.312736 -3.90126,0.691893 -6.838,0.84257 -4.75651,0.244043 -5.57325,0.439698 -7.47998,1.791859 -3.1132,2.207734 -4.13574,4.481658 -4.13574,9.197026 0,4.303428 0.79171,6.764108 2.75651,8.567446 1.95185,1.791454 3.97774,2.352474 9.76913,2.705304 4.1683,0.25394 5.59864,0.55508 6.68125,1.40667 1.47319,1.1588 2.86185,3.93914 2.86185,5.72987 0,1.04945 -0.31108,1.09291 -7.67023,1.07143 -8.50721,-0.0248 -10.95916,-0.59693 -15.04592,-3.51063 -2.99461,-2.13503 -5.22857,-5.42069 -6.63333,-9.756119 l -1.12545,-3.473441 -6.84344,10.76179 c -12.19806,19.18232 -20.18758,28.74306 -26.75369,32.01509 -6.35321,3.16594 -14.455132,1.20474 -17.171912,-4.15674 -1.165596,-2.30027 -1.331332,-3.32154 -1.310259,-8.07393 0.05302,-11.9594 5.510141,-28.228883 15.835551,-47.21107 4.90112,-9.010204 5.49483,-10.848502 3.79714,-11.757077 -4.38482,-2.346686 -13.58742,6.006604 -24.578899,22.310509 -5.766906,8.554182 -9.033414,15.099768 -16.382681,32.828378 -3.254305,7.85036 -6.214192,14.74939 -6.577524,15.33118 -1.245237,1.99393 -3.270189,2.38458 -6.030762,1.16345 -5.088701,-2.25097 -7.308844,-6.53988 -7.308844,-14.11932 0,-11.04047 4.61873,-25.147271 14.598924,-44.588899 C 74.75631,67.068879 75.232344,65.269888 72.508248,64.957204 69.39443,64.599788 62.496936,70.081501 57.08979,77.210876 53.013751,82.58517 45.421356,93.726319 42.397093,98.771073 41.066033,100.9914 36.564447,109.59014 32.393568,117.87937 23.749155,135.05934 21.985524,138.0642 20.54657,138.0642 c -0.55419,0 -1.952278,-0.68696 -3.106862,-1.52657 z"
       id="path2102"
       transform="matrix(0.26458333,0,0,0.26458333,-23.394384,125.96339)" />
    <path
       style="fill:#afb0b5;fill-opacity:1;stroke-width:2.03438;stroke-linecap:round;stroke-linejoin:round"
       d="m 194.92983,110.06968 c -4.88007,-1.03343 -9.84037,-5.20564 -12.04435,-10.130756 -0.89515,-2.000363 -1.13471,-3.667336 -1.17342,-8.165257 -0.0453,-5.258033 0.0636,-5.87348 1.56194,-8.83463 2.05496,-4.061046 5.39368,-7.394601 9.21814,-9.203856 2.70056,-1.27757 3.83753,-1.456195 11.0279,-1.732537 l 8.01692,-0.308109 v 1.671178 c 0,4.653502 -2.49524,6.326718 -10.01238,6.713945 -7.95308,0.409684 -10.84963,2.382515 -12.06029,8.214225 -1.10511,5.323265 0.47326,10.111248 4.16663,12.639487 1.75027,1.19811 2.49524,1.33641 7.19909,1.33641 4.49365,0 5.46484,-0.16261 6.76579,-1.13279 2.34015,-1.745184 3.36092,-3.975034 3.94191,-8.611029 0.29301,-2.338048 0.79026,-4.880487 1.10499,-5.649864 0.59422,-1.452556 3.46262,-3.320638 6.02623,-3.924643 l 1.48022,-0.348751 V 96.60777 c 0,13.75933 -0.0194,14.00507 -1.10326,14.00507 -1.19789,0 -4.05012,-1.30953 -5.37891,-2.46958 -0.70387,-0.61448 -1.34179,-0.51841 -4.18595,0.63039 -3.77251,1.52379 -10.60286,2.13214 -14.5512,1.29603 z"
       id="path2141"
       transform="matrix(0.26458333,0,0,0.26458333,-23.394384,125.96339)" />
    <path
       style="fill:#afb0b5;fill-opacity:1;stroke-width:0.689918;stroke-linecap:round;stroke-linejoin:round"
       d="m 163.59374,95.36352 c -1.25722,-0.218312 -1.83401,-0.529496 -2.64473,-1.426862 -0.92988,-1.029273 -1.3201,-2.427561 -1.04596,-3.748083 0.22757,-1.096163 0.94465,-2.213619 1.8209,-2.837562 0.79658,-0.567217 2.15603,-0.687367 9.04306,-0.79924 6.1262,-0.09951 7.57724,-0.01256 8.0736,0.483807 0.27958,0.279575 0.27774,0.399411 -0.0258,1.687121 -0.69319,2.940357 -2.21813,5.137896 -4.26505,6.146224 l -1.21793,0.599966 -4.38559,0.03126 c -2.41207,0.01719 -4.82068,-0.04429 -5.35247,-0.136632 z"
       id="path2180"
       transform="matrix(0.26458333,0,0,0.26458333,-23.394384,125.96339)" />
    <path
       style="fill:#c49b40;fill-opacity:1;stroke-width:0.689918;stroke-linecap:round;stroke-linejoin:round"
       d="m 268.99278,110.69058 c -4.18448,-0.26668 -6.40154,-0.84801 -9.04371,-2.37134 -2.79402,-1.61087 -5.05607,-3.9953 -6.56272,-6.91777 -1.78124,-3.455097 -2.32544,-6.352319 -2.16013,-11.500076 0.0709,-2.206927 0.17724,-3.099982 0.48349,-4.059389 2.17884,-6.825888 7.84013,-12.199869 14.31248,-13.586131 1.72121,-0.368653 13.8676,-0.576844 14.93832,-0.256046 0.83097,0.248962 0.98382,0.657733 0.81213,2.171913 -0.26255,2.315628 -2.09554,4.687045 -4.26545,5.518416 -0.91435,0.350323 -1.58789,0.421303 -5.24744,0.552997 -4.74739,0.170842 -6.13335,0.403599 -8.06605,1.354607 -2.24863,1.106468 -4.08098,3.560967 -4.63177,6.204412 -0.2955,1.418244 -0.29406,5.893554 0.002,7.301636 0.6886,3.271084 3.09502,5.741721 6.41479,6.585951 0.85674,0.21787 2.46328,0.32894 6.00686,0.41528 l 4.83734,0.11786 1.09524,0.798 c 1.43164,1.04308 2.00906,1.70331 2.6554,3.03615 0.58733,1.21114 0.90415,2.59484 0.90415,3.94876 v 0.88779 l -5.06551,-0.0265 c -2.78603,-0.0146 -6.12493,-0.094 -7.41978,-0.17653 z"
       id="path2219"
       transform="matrix(0.26458333,0,0,0.26458333,-23.394384,125.96339)" />
    <path
       style="fill:#c49b40;fill-opacity:1;stroke-width:0.460559;stroke-linecap:round;stroke-linejoin:round"
       d="m 50.25469,34.615198 c -1.895213,-0.42789 -3.913009,-1.597878 -5.472505,-3.173148 -2.091399,-2.112555 -2.312536,-3.511223 -0.983068,-6.217799 1.421072,-2.893065 3.794039,-5.673672 5.552679,-6.506547 0.608282,-0.288077 0.805322,-0.317045 2.132485,-0.313514 1.341801,0.0036 1.53852,0.03452 2.387708,0.375638 1.192692,0.479105 2.603175,1.454696 3.76761,2.60595 1.791726,1.771444 2.24502,2.744484 2.242303,4.813323 -0.0015,1.18291 -0.04593,1.465872 -0.377637,2.408029 -0.206731,0.587185 -0.560411,1.373562 -0.785954,1.747505 -0.984037,1.631503 -2.594813,3.165262 -4.18595,3.985809 -0.677734,0.349506 -0.838134,0.380329 -2.134158,0.410112 -0.865683,0.01989 -1.68504,-0.03185 -2.143513,-0.135358 z"
       id="path2369"
       transform="matrix(0.26458333,0,0,0.26458333,-23.394384,125.96339)" />
    <path
       style="fill:#c49b40;fill-opacity:1;stroke-width:0.460559;stroke-linecap:round;stroke-linejoin:round"
       d="M 74.636975,44.724472 C 73.138775,44.485561 72.17,44.201051 71.092286,43.683466 69.377767,42.860049 68.959412,42.14518 68.707159,39.607848 c -0.09734,-0.97908 -0.09565,-1.792716 0.0063,-3.046407 0.225344,-2.770324 0.719771,-4.562994 1.519134,-5.507999 1.399236,-1.654175 5.40359,-2.731441 8.112693,-2.182506 1.35347,0.274248 2.333766,0.788152 3.242011,1.699571 1.500907,1.506152 2.251574,3.232676 2.343372,5.389723 0.155367,3.650728 -1.47283,6.815222 -4.172668,8.109824 -1.663721,0.797773 -3.083967,0.979265 -5.121057,0.654418 z"
       id="path2408"
       transform="matrix(0.26458333,0,0,0.26458333,-23.394384,125.96339)" />
    <path
       style="fill:#c49b40;fill-opacity:1;stroke-width:0.460559;stroke-linecap:round;stroke-linejoin:round"
       d="m 99.678694,42.69611 c -0.727148,-0.22171 -2.282141,-1.920872 -2.957951,-3.23219 -0.645354,-1.252224 -1.311762,-3.154783 -1.615798,-4.613022 -0.279503,-1.340571 -0.287634,-3.355025 -0.01672,-4.143114 0.585409,-1.702974 2.550355,-3.198788 5.207695,-3.964356 1.14676,-0.330376 3.56682,-0.460588 4.51551,-0.242959 2.60479,0.59753 5.00506,3.057167 5.66646,5.806598 0.26702,1.109999 0.26343,2.926541 -0.008,3.945178 -0.93868,3.525282 -4.83951,6.266334 -9.26844,6.512799 -0.6208,0.03455 -1.281663,0.0046 -1.522943,-0.06893 z"
       id="path2447"
       transform="matrix(0.26458333,0,0,0.26458333,-23.394384,125.96339)" />
    <path
       style="fill:#c49b40;fill-opacity:1;stroke-width:0.460559;stroke-linecap:round;stroke-linejoin:round"
       d="m 124.41527,28.817231 c -0.74213,-0.12853 -2.08579,-0.648196 -3.00467,-1.162064 -3.54424,-1.982047 -5.90613,-6.007235 -5.40817,-9.216696 0.34669,-2.234431 2.08486,-4.224184 4.86421,-5.568246 3.27878,-1.58558 6.21443,-0.969396 9.12678,1.915683 1.67147,1.655817 2.34251,3.095219 2.34251,5.024769 0,1.844802 -0.41336,3.03496 -1.7461,5.027419 -0.84619,1.26507 -2.43996,2.925259 -3.26945,3.405694 -0.55433,0.321066 -1.79435,0.71137 -2.16911,0.682745 -0.10321,-0.0079 -0.43441,-0.05707 -0.736,-0.109304 z"
       id="path2486"
       transform="matrix(0.26458333,0,0,0.26458333,-23.394384,125.96339)" />
    <path
       style="fill:#c49b40;fill-opacity:1;stroke-width:0.460559;stroke-linecap:round;stroke-linejoin:round"
       d=""
       id="path2564"
       transform="matrix(0.26458333,0,0,0.26458333,-23.394384,125.96339)" />
    <path
       style="fill:#c49b40;fill-opacity:1;stroke-width:0.460559;stroke-linecap:round;stroke-linejoin:round"
       d="m 234.99985,111.4253 c -4.7342,-0.49394 -7.92468,-3.06749 -9.606,-7.74851 -0.60741,-1.69112 -0.74586,-2.77262 -0.74586,-5.826193 0,-3.022347 0.11783,-3.962598 0.74637,-5.955604 1.02692,-3.256205 3.28897,-5.831585 6.13003,-6.97914 2.4445,-0.987378 5.84738,-1.224331 8.55451,-0.595676 3.55032,0.824459 6.11709,2.78761 7.65327,5.853474 1.17548,2.345972 1.54405,4.458485 1.42443,8.164371 -0.11674,3.616558 -0.54671,5.670218 -1.54094,7.360018 -1.45777,2.47763 -4.09317,4.48575 -7.05185,5.37337 -0.78516,0.23555 -3.10479,0.50179 -4.10169,0.47077 -0.26808,-0.008 -0.92611,-0.0609 -1.46227,-0.11688 z m 4.57421,-4.16714 c 1.2338,-0.54111 2.8607,-2.15505 3.7099,-3.68032 0.80448,-1.44496 0.94588,-2.14779 1.0084,-5.012154 0.10076,-4.615938 -0.41019,-6.504652 -2.28578,-8.449318 -1.76977,-1.834957 -4.01523,-2.515041 -6.6987,-2.028842 -2.91411,0.527986 -4.7526,2.460025 -5.69572,5.985526 -0.30447,1.138159 -0.32595,1.387412 -0.32553,3.777545 5.1e-4,2.913003 0.14297,3.689793 1.00563,5.483533 1.18784,2.4699 2.81586,3.76303 5.19501,4.12639 0.82925,0.12664 3.65573,-0.0133 4.08679,-0.20236 z"
       id="path2603"
       transform="matrix(0.26458333,0,0,0.26458333,-23.394384,125.96339)" />
    <path
       style="fill:#afb0b5;fill-opacity:1;stroke-width:0.460559;stroke-linecap:round;stroke-linejoin:round"
       d="m 234.99401,79.254167 c -2.94937,-3.563689 -3.8732,-4.739106 -3.79008,-4.822227 0.0415,-0.04148 1.41886,-0.102164 3.06086,-0.134863 l 2.98544,-0.05945 0.6239,1.326846 c 1.62312,3.451873 2.54819,5.69349 2.40762,5.834064 -0.0394,0.03944 -0.80532,0.104728 -1.70195,0.145093 l -1.63025,0.07339 z"
       id="path2642"
       transform="matrix(0.26458333,0,0,0.26458333,-23.394384,125.96339)" />
    <path
       style="fill:#afb0b5;fill-opacity:1;stroke-width:0.460559;stroke-linecap:round;stroke-linejoin:round"
       d="m 270.82559,110.70337 c -2.77373,-0.0971 -3.47533,-0.16113 -5.3851,-0.4916 -3.38793,-0.58625 -6.09783,-1.96935 -8.63688,-4.40815 -1.47431,-1.4161 -2.60937,-2.96176 -3.51481,-4.78624 -1.48911,-3.000599 -2.01573,-5.512418 -2.01799,-9.625166 -0.002,-4.157743 0.29371,-5.585739 1.76802,-8.52994 1.03432,-2.065537 2.12217,-3.580029 3.77329,-5.253135 2.56164,-2.595752 5.44854,-4.326044 8.51607,-5.104185 1.57073,-0.398449 5.39655,-0.578885 11.18545,-0.527535 4.31965,0.03832 4.48102,0.04823 4.81333,0.295829 0.30373,0.226301 0.3481,0.344975 0.38043,1.017409 0.08,1.664514 -0.58333,3.267874 -1.94509,4.701453 -0.93426,0.983526 -2.04187,1.644665 -3.14123,1.875007 -0.3646,0.07639 -2.33867,0.220731 -4.38683,0.320755 -4.14175,0.202267 -5.48537,0.373747 -6.92771,0.88415 -2.86763,1.014771 -4.80373,3.189537 -5.77041,6.481719 -0.11568,0.393952 -0.16158,1.474763 -0.16302,3.838473 -0.002,3.736294 0.0583,4.12074 0.93085,5.91003 0.68906,1.412986 2.15333,2.891186 3.60182,3.636096 1.91687,0.98579 1.90119,0.98392 11.09171,1.31802 l 1.85663,0.0675 1.01138,0.76287 c 0.55625,0.41957 1.26972,1.05021 1.58549,1.40142 1.13854,1.26633 1.91517,3.42524 1.91517,5.32387 v 1.01628 l -4.05172,-0.0198 c -2.22845,-0.0109 -5.14843,-0.0582 -6.48885,-0.10511 z"
       id="path2718"
       transform="matrix(0.26458333,0,0,0.26458333,-23.394384,125.96339)" />
    <path
       style="fill:#c49b40;fill-opacity:1;stroke-width:0.460559;stroke-linecap:round;stroke-linejoin:round"
       d="m 235.57102,79.843064 c -3.06082,-3.685237 -4.28035,-5.261535 -4.13115,-5.339694 0.0814,-0.04264 1.41476,-0.111412 2.96302,-0.152819 l 2.81501,-0.07528 1.05353,2.305542 c 1.15923,2.53684 1.90731,4.335264 1.90731,4.58527 0,0.192271 -0.38798,0.260071 -1.98013,0.346029 l -1.18807,0.06414 z"
       id="path2794"
       transform="matrix(0.26458333,0,0,0.26458333,-23.394384,125.96339)" />
  </g>
</svg>
