<?xml version="1.0" encoding="UTF-8" standalone="no"?>
<!-- Created with Inkscape (http://www.inkscape.org/) -->

<svg
   width="60.279648mm"
   height="56.86105mm"
   viewBox="0 0 60.279648 56.86105"
   version="1.1"
   id="svg3079"
   inkscape:version="1.1.2 (0a00cf5339, 2022-02-04)"
   sodipodi:docname="megoc-m-og.svg"
   xmlns:inkscape="http://www.inkscape.org/namespaces/inkscape"
   xmlns:sodipodi="http://sodipodi.sourceforge.net/DTD/sodipodi-0.dtd"
   xmlns="http://www.w3.org/2000/svg"
   xmlns:svg="http://www.w3.org/2000/svg">
  <sodipodi:namedview
     id="namedview3081"
     pagecolor="#ffffff"
     bordercolor="#666666"
     borderopacity="1.0"
     inkscape:pageshadow="2"
     inkscape:pageopacity="0.0"
     inkscape:pagecheckerboard="0"
     inkscape:document-units="mm"
     showgrid="false"
     inkscape:zoom="1.9066051"
     inkscape:cx="86.803503"
     inkscape:cy="154.46303"
     inkscape:window-width="1128"
     inkscape:window-height="955"
     inkscape:window-x="16"
     inkscape:window-y="72"
     inkscape:window-maximized="0"
     inkscape:current-layer="layer1" />
  <defs
     id="defs3076" />
  <g
     inkscape:label="Layer 1"
     inkscape:groupmode="layer"
     id="layer1"
     transform="translate(74.660869,24.832462)">
    <path
       style="fill:#c49b40;stroke-width:3.01952;stroke-linecap:round;stroke-linejoin:round"
       d="m 195.33451,57.003813 c -7.07478,-3.847158 -11.52138,-9.697283 -11.73735,-15.442118 -0.088,-2.341873 0.47495,-3.481153 3.01836,-6.108099 3.97298,-4.10345 6.64537,-5.494315 10.55673,-5.494315 3.39066,0 8.1181,2.870718 11.21872,6.812518 3.30128,4.196897 1.69863,12.28951 -3.51042,17.725975 -3.44361,3.593957 -6.20992,4.320172 -9.54604,2.506039 z"
       id="path3435"
       transform="matrix(0.26458333,0,0,0.26458333,-78.410686,-32.759188)" />
    <path
       style="fill:#c49b40;stroke-width:3.01952;stroke-linecap:round;stroke-linejoin:round"
       d="m 152.82518,80.683424 c -2.29316,-1.606199 -5.16664,-9.400978 -5.3101,-14.40454 -0.14791,-5.158802 1.66544,-7.998321 6.46311,-10.120559 4.48996,-1.986122 9.36658,-1.619536 13.01499,0.978367 2.83298,2.017258 5.52758,7.157842 5.55473,10.596943 0.0209,2.651555 -1.90302,7.510779 -3.80776,9.617083 -3.69523,4.086245 -12.27426,5.882755 -15.91497,3.332706 z"
       id="path3474"
       transform="matrix(0.26458333,0,0,0.26458333,-78.410686,-32.759188)" />
    <path
       style="fill:#c49b40;stroke-width:3.01952;stroke-linecap:round;stroke-linejoin:round"
       d="m 106.65504,83.967215 -4.79349,-1.833617 -0.22911,-7.267999 c -0.38062,-12.074002 2.13772,-15.508417 11.43596,-15.595893 3.97583,-0.0374 5.70093,0.323924 7.37712,1.54516 2.86228,2.085385 5.78292,7.886785 5.78292,11.486865 0,4.373812 -3.06349,9.682448 -6.79077,11.767553 -4.00272,2.239183 -6.71877,2.217495 -12.78263,-0.102069 z"
       id="path3513"
       transform="matrix(0.26458333,0,0,0.26458333,-78.410686,-32.759188)" />
    <path
       style="fill:#c49b40;stroke-width:3.01952;stroke-linecap:round;stroke-linejoin:round"
       d="m 68.052067,68.189642 c -3.867996,-1.10238 -11.329162,-8.57852 -11.329162,-11.351899 0,-4.396733 6.130921,-13.734761 10.108869,-15.396854 5.03875,-2.105324 12.777904,1.740257 15.985585,7.943228 2.792309,5.399732 -0.161452,13.439071 -6.304224,17.158392 -3.603412,2.181791 -5.374989,2.526668 -8.461068,1.647133 z"
       id="path3552"
       transform="matrix(0.26458333,0,0,0.26458333,-78.410686,-32.759188)" />
    <path
       style="fill:#afb0b5;fill-opacity:1;stroke-width:3.01952;stroke-linecap:round;stroke-linejoin:round"
       d="m 29.113368,242.05921 c -5.954467,-3.52262 -9.498475,-7.41086 -12.477447,-13.68941 -3.736713,-7.87559 -3.38425,-12.71448 2.173506,-29.83963 10.313635,-31.77947 32.039526,-88.26798 36.795368,-95.66997 1.550214,-2.41276 3.909577,-2.27123 9.608079,0.57635 9.486893,4.74065 13.071616,9.28027 14.212513,17.9984 0.746358,5.70327 -0.888048,11.03573 -9.060135,29.55983 -8.130065,18.42884 -9.377566,21.70774 -8.567282,22.51802 0.765046,0.76505 2.871149,-1.86631 11.871672,-14.83243 24.244502,-34.92653 36.472998,-48.35265 50.162048,-55.07482 5.7659,-2.8314 6.29721,-2.9392 14.08866,-2.85848 6.57887,0.0682 8.77343,0.41144 11.70602,1.83109 4.95256,2.39749 10.60962,8.62082 11.79018,12.97037 1.257,4.63112 0.51387,12.73999 -1.69408,18.48543 -0.97435,2.53543 -1.50209,4.87225 -1.17275,5.19294 0.32935,0.32069 2.60156,-1.75375 5.04937,-4.60986 10.60136,-12.36972 27.66828,-28.03512 34.20389,-31.39509 4.27438,-2.19747 12.51596,-3.23365 18.0152,-2.26498 9.97926,1.75781 15.6166,6.23692 17.94944,14.26162 1.13437,3.90208 1.18717,5.31701 0.36511,9.78314 -1.33061,7.22897 -3.30334,11.92935 -17.27994,41.17241 -13.1275,27.46653 -16.29131,35.55471 -16.92661,43.27236 -0.75818,9.21054 1.01154,11.16232 7.51336,8.28625 5.24982,-2.32224 14.82302,-12.3614 25.44394,-26.68236 l 8.78805,-11.84958 0.26297,3.07364 c 0.40988,4.7907 -0.93744,7.98029 -7.8095,18.48792 -21.53394,32.92616 -36.19447,45.52194 -50.96372,43.78611 -16.30084,-1.91585 -21.63654,-13.8562 -17.01832,-38.084 3.41367,-17.90859 11.70091,-40.05356 23.00052,-61.46156 11.45365,-21.69983 12.46598,-24.36911 10.12854,-26.70656 -4.72509,-4.72509 -19.96304,6.99216 -34.89103,26.82951 -14.07767,18.70737 -22.00184,33.49737 -36.95971,68.98312 -13.42397,31.84676 -14.35026,32.96031 -23.56244,28.32584 -3.8489,-1.93631 -5.916862,-4.34585 -8.542166,-9.95317 -2.093371,-4.47115 -2.240387,-5.45806 -2.201432,-14.77755 0.03379,-8.08082 0.456276,-11.66337 2.214095,-18.77449 4.765913,-19.28009 11.210983,-35.64492 23.440793,-59.5191 9.24529,-18.04803 10.32779,-21.778 6.44974,-22.22389 -3.70639,-0.42616 -10.68612,3.42214 -16.7318,9.22511 -16.035231,15.3915 -31.914694,39.95508 -57.833402,89.46119 -13.329677,25.4604 -15.305836,28.99426 -16.213789,28.99426 -0.319564,0 -2.716944,-1.2636 -5.327511,-2.80798 z"
       id="path3591"
       transform="matrix(0.26458333,0,0,0.26458333,-78.410686,-32.759188)" />
    <path
       style="fill:#afb0b5;fill-opacity:1;stroke-width:3.01952;stroke-linecap:round;stroke-linejoin:round"
       d="m 28.255636,240.88491 c -5.349661,-3.50544 -7.789986,-6.2885 -10.868966,-12.39546 -2.887536,-5.72725 -3.29507,-9.45427 -1.816502,-16.61247 2.906344,-14.07052 29.208606,-85.91517 38.210772,-104.37276 3.119824,-6.39673 4.62513,-6.83246 11.541845,-3.34091 9.040399,4.56358 12.713005,9.26122 13.545354,17.32591 0.613295,5.94225 -0.31847,8.95789 -9.365506,30.31131 -4.392433,10.36732 -7.986243,19.55023 -7.986243,20.40648 0,3.86598 2.645048,0.92605 14.771875,-16.41875 22.730817,-32.51151 34.674455,-45.26933 48.719265,-52.04037 4.9042,-2.36434 6.33638,-2.68472 11.98371,-2.68079 3.52761,0.002 7.75293,0.37635 9.3896,0.83089 4.14596,1.15143 9.31785,5.2841 12.48535,9.97656 2.61679,3.87662 2.67049,4.12439 2.33175,10.75877 -0.19069,3.73493 -1.0109,8.8536 -1.82268,11.37484 -0.81176,2.52123 -1.24394,4.81606 -0.96039,5.09962 0.28356,0.28356 6.72917,-5.74661 14.32358,-13.40037 13.74387,-13.85128 21.73697,-20.62915 26.90834,-22.81732 2.72667,-1.15374 16.85895,-2.67881 16.85895,-1.81931 0,0.25266 1.52926,0.86839 3.39837,1.3683 5.08271,1.35942 9.94331,5.25907 12.0005,9.62797 0.97778,2.07653 1.9782,3.87227 2.22315,3.99054 0.96126,0.46411 -0.92986,12.35755 -2.72197,17.11878 -1.04275,2.77032 -7.20116,16.34537 -13.68534,30.16676 -16.22598,34.58649 -17.37747,37.68423 -17.49705,47.07029 -0.11409,8.956 0.50071,9.78962 6.02182,8.16499 4.62919,-1.36217 17.60179,-14.54436 27.43717,-27.88048 l 7.19023,-9.74946 0.24307,3.14533 c 0.27931,3.61436 -1.08849,6.62477 -7.62803,16.78859 -12.55699,19.51622 -27.41465,35.94498 -36.57498,40.44256 -4.15772,2.04137 -5.65024,2.34161 -11.5646,2.32635 -9.99515,-0.0258 -14.81931,-2.94294 -18.45356,-11.15876 -4.53466,-10.25137 -0.25623,-34.63392 10.87751,-61.99026 1.89249,-4.64997 7.61722,-16.80111 12.72164,-27.00253 5.1044,-10.20143 9.06945,-18.88992 8.8112,-19.30778 -0.25825,-0.41785 -0.0888,-0.75973 0.37652,-0.75973 1.1594,0 1.07131,-4.24868 -0.11263,-5.43262 -4.27113,-4.27112 -18.38776,5.48103 -31.5714,21.81036 -14.29198,17.70212 -25.56174,37.97023 -40.2022,72.30173 -8.87871,20.82032 -13.17038,29.27397 -15.70446,30.93436 -4.63081,3.03422 -13.685799,-3.48195 -17.000997,-12.2343 -1.627013,-4.29542 -1.75011,-5.68731 -1.371193,-15.50441 0.349973,-9.06718 0.860583,-12.37622 3.20522,-20.77176 4.44809,-15.92741 8.82406,-26.96799 19.31579,-48.73377 10.21733,-21.19652 12.03506,-25.64136 11.28519,-27.59548 -1.11525,-2.9063 -11.32759,0.28626 -15.39483,4.8127 -0.94346,1.04998 -1.8832,1.74123 -2.08832,1.53612 -0.20511,-0.20511 -2.46492,1.88502 -5.02179,4.64474 -15.916124,17.17882 -29.450975,38.70696 -56.898723,90.50148 -6.985652,13.18209 -13.210794,24.06337 -13.833648,24.18064 -0.622853,0.11727 -3.337147,-1.23144 -6.031763,-2.99712 z"
       id="path3667"
       transform="matrix(0.26458333,0,0,0.26458333,-78.410686,-32.759188)" />
  </g>
</svg>
