<svg width="60.28mm" height="56.861mm" version="1.1" viewBox="0 0 60.28 56.861" xmlns="http://www.w3.org/2000/svg">
 <g transform="translate(74.661 24.832)" stroke-linecap="round" stroke-linejoin="round" stroke-width="3.0195">
  <g fill="#c49b40">
   <path transform="matrix(.26458 0 0 .26458 -78.411 -32.759)" d="m195.33 57.004c-7.0748-3.8472-11.521-9.6973-11.737-15.442-0.088-2.3419 0.47495-3.4812 3.0184-6.1081 3.973-4.1034 6.6454-5.4943 10.557-5.4943 3.3907 0 8.1181 2.8707 11.219 6.8125 3.3013 4.1969 1.6986 12.29-3.5104 17.726-3.4436 3.594-6.2099 4.3202-9.546 2.506z"/>
   <path transform="matrix(.26458 0 0 .26458 -78.411 -32.759)" d="m152.83 80.683c-2.2932-1.6062-5.1666-9.401-5.3101-14.405-0.14791-5.1588 1.6654-7.9983 6.4631-10.121 4.49-1.9861 9.3666-1.6195 13.015 0.97837 2.833 2.0173 5.5276 7.1578 5.5547 10.597 0.0209 2.6516-1.903 7.5108-3.8078 9.6171-3.6952 4.0862-12.274 5.8828-15.915 3.3327z"/>
   <path transform="matrix(.26458 0 0 .26458 -78.411 -32.759)" d="m106.66 83.967-4.7935-1.8336-0.22911-7.268c-0.38062-12.074 2.1377-15.508 11.436-15.596 3.9758-0.0374 5.7009 0.32392 7.3771 1.5452 2.8623 2.0854 5.7829 7.8868 5.7829 11.487 0 4.3738-3.0635 9.6824-6.7908 11.768-4.0027 2.2392-6.7188 2.2175-12.783-0.10207z"/>
   <path transform="matrix(.26458 0 0 .26458 -78.411 -32.759)" d="m68.052 68.19c-3.868-1.1024-11.329-8.5785-11.329-11.352 0-4.3967 6.1309-13.735 10.109-15.397 5.0388-2.1053 12.778 1.7403 15.986 7.9432 2.7923 5.3997-0.16145 13.439-6.3042 17.158-3.6034 2.1818-5.375 2.5267-8.4611 1.6471z"/>
  </g>
  <path transform="matrix(.26458 0 0 .26458 -78.411 -32.759)" d="m29.113 242.06c-5.9545-3.5226-9.4985-7.4109-12.477-13.689-3.7367-7.8756-3.3842-12.714 2.1735-29.84 10.314-31.779 32.04-88.268 36.795-95.67 1.5502-2.4128 3.9096-2.2712 9.6081 0.57635 9.4869 4.7406 13.072 9.2803 14.213 17.998 0.74636 5.7033-0.88805 11.036-9.0601 29.56-8.1301 18.429-9.3776 21.708-8.5673 22.518 0.76505 0.76505 2.8711-1.8663 11.872-14.832 24.245-34.927 36.473-48.353 50.162-55.075 5.7659-2.8314 6.2972-2.9392 14.089-2.8585 6.5789 0.0682 8.7734 0.41144 11.706 1.8311 4.9526 2.3975 10.61 8.6208 11.79 12.97 1.257 4.6311 0.51387 12.74-1.6941 18.485-0.97435 2.5354-1.5021 4.8722-1.1728 5.1929 0.32935 0.32069 2.6016-1.7538 5.0494-4.6099 10.601-12.37 27.668-28.035 34.204-31.395 4.2744-2.1975 12.516-3.2336 18.015-2.265 9.9793 1.7578 15.617 6.2369 17.949 14.262 1.1344 3.9021 1.1872 5.317 0.36511 9.7831-1.3306 7.229-3.3033 11.929-17.28 41.172-13.128 27.467-16.291 35.555-16.927 43.272-0.75818 9.2105 1.0115 11.162 7.5134 8.2862 5.2498-2.3222 14.823-12.361 25.444-26.682l8.788-11.85 0.26297 3.0736c0.40988 4.7907-0.93744 7.9803-7.8095 18.488-21.534 32.926-36.194 45.522-50.964 43.786-16.301-1.9158-21.637-13.856-17.018-38.084 3.4137-17.909 11.701-40.054 23.001-61.462 11.454-21.7 12.466-24.369 10.129-26.707-4.7251-4.7251-19.963 6.9922-34.891 26.83-14.078 18.707-22.002 33.497-36.96 68.983-13.424 31.847-14.35 32.96-23.562 28.326-3.8489-1.9363-5.9169-4.3458-8.5422-9.9532-2.0934-4.4712-2.2404-5.4581-2.2014-14.778 0.03379-8.0808 0.45628-11.663 2.2141-18.774 4.7659-19.28 11.211-35.645 23.441-59.519 9.2453-18.048 10.328-21.778 6.4497-22.224-3.7064-0.42616-10.686 3.4221-16.732 9.2251-16.035 15.392-31.915 39.955-57.833 89.461-13.33 25.46-15.306 28.994-16.214 28.994-0.31956 0-2.7169-1.2636-5.3275-2.808z" fill="#afb0b5"/>
  <path transform="matrix(.26458 0 0 .26458 -78.411 -32.759)" d="m28.256 240.88c-5.3497-3.5054-7.79-6.2885-10.869-12.395-2.8875-5.7272-3.2951-9.4543-1.8165-16.612 2.9063-14.071 29.209-85.915 38.211-104.37 3.1198-6.3967 4.6251-6.8325 11.542-3.3409 9.0404 4.5636 12.713 9.2612 13.545 17.326 0.6133 5.9422-0.31847 8.9579-9.3655 30.311-4.3924 10.367-7.9862 19.55-7.9862 20.406 0 3.866 2.645 0.92605 14.772-16.419 22.731-32.512 34.674-45.269 48.719-52.04 4.9042-2.3643 6.3364-2.6847 11.984-2.6808 3.5276 2e-3 7.7529 0.37635 9.3896 0.83089 4.146 1.1514 9.3178 5.2841 12.485 9.9766 2.6168 3.8766 2.6705 4.1244 2.3318 10.759-0.19069 3.7349-1.0109 8.8536-1.8227 11.375-0.81176 2.5212-1.2439 4.8161-0.96039 5.0996 0.28356 0.28356 6.7292-5.7466 14.324-13.4 13.744-13.851 21.737-20.629 26.908-22.817 2.7267-1.1537 16.859-2.6788 16.859-1.8193 0 0.25266 1.5293 0.86839 3.3984 1.3683 5.0827 1.3594 9.9433 5.2591 12 9.628 0.97778 2.0765 1.9782 3.8723 2.2232 3.9905 0.96126 0.46411-0.92986 12.358-2.722 17.119-1.0428 2.7703-7.2012 16.345-13.685 30.167-16.226 34.586-17.377 37.684-17.497 47.07-0.11409 8.956 0.50071 9.7896 6.0218 8.165 4.6292-1.3622 17.602-14.544 27.437-27.88l7.1902-9.7495 0.24307 3.1453c0.27931 3.6144-1.0885 6.6248-7.628 16.789-12.557 19.516-27.415 35.945-36.575 40.443-4.1577 2.0414-5.6502 2.3416-11.565 2.3264-9.9952-0.0258-14.819-2.9429-18.454-11.159-4.5347-10.251-0.25623-34.634 10.878-61.99 1.8925-4.65 7.6172-16.801 12.722-27.003 5.1044-10.201 9.0694-18.89 8.8112-19.308-0.25825-0.41785-0.0888-0.75973 0.37652-0.75973 1.1594 0 1.0713-4.2487-0.11263-5.4326-4.2711-4.2711-18.388 5.481-31.571 21.81-14.292 17.702-25.562 37.97-40.202 72.302-8.8787 20.82-13.17 29.274-15.704 30.934-4.6308 3.0342-13.686-3.482-17.001-12.234-1.627-4.2954-1.7501-5.6873-1.3712-15.504 0.34997-9.0672 0.86058-12.376 3.2052-20.772 4.4481-15.927 8.8241-26.968 19.316-48.734 10.217-21.197 12.035-25.641 11.285-27.595-1.1152-2.9063-11.328 0.28626-15.395 4.8127-0.94346 1.05-1.8832 1.7412-2.0883 1.5361-0.20511-0.20511-2.4649 1.885-5.0218 4.6447-15.916 17.179-29.451 38.707-56.899 90.501-6.9857 13.182-13.211 24.063-13.834 24.181-0.62285 0.11727-3.3371-1.2314-6.0318-2.9971z" fill="#afb0b5"/>
 </g>
</svg>
