<svg width="76.708mm" height="40.471mm" version="1.1" viewBox="0 0 76.708 40.471" xmlns="http://www.w3.org/2000/svg">
 <g transform="translate(23.394 -125.96)" stroke-linecap="round" stroke-linejoin="round">
  <g fill="#afb0b5">
   <path transform="matrix(.26458 0 0 .26458 -23.394 125.96)" d="m17.44 136.54c-5.504-4.0025-8.5265-9.1114-8.4912-14.352 0.032187-4.774 4.466-17.73 15.346-44.845 6.6074-16.466 9.2683-22.169 10.344-22.169 1.7081 0 7.4183 3.4647 9.66 5.8612 4.6125 4.9312 4.1066 8.9582-3.0656 24.401-4.0945 8.8161-6.3032 15.136-4.7553 13.606 0.29964-0.29604 3.9705-5.686 8.1574-11.978 11.88-17.852 19.009-25.728 26.755-29.556 3.4294-1.6949 4.8528-2.0897 8.1319-2.2553 11.464-0.5789 17.478 8.0545 13.316 19.113-0.74696 1.9845-1.292 3.7931-1.2111 4.0191 0.08086 0.22601 1.9637-1.7807 4.184-4.4594 6.4903-7.8301 13.983-14.654 18.589-16.931 3.801-1.8785 4.1499-1.9496 8.432-1.7163 4.7566 0.25913 7.1067 1.1231 9.763 3.5891 2.4616 2.2852 3.2482 4.282 3.2092 8.147-0.0454 4.5042-1.0905 7.2157-9.4956 24.636-8.7282 18.09-11.098 24.147-11.114 28.41-8e-3 2.0919 0.84706 2.9335 2.981 2.9335 2.982 0 8.1908-4.6867 14.357-12.918 2.9839-3.9831 12.136-18.223 17.15-26.685 2.9864-5.0395 5.9026-7.8819 10.021-9.7674 2.5515-1.1681 3.9329-1.3789 10.695-1.632l7.7654-0.29067v2.1595c0 2.5004-1.3816 4.5714-3.615 5.4189-0.82416 0.31274-3.9013 0.69189-6.838 0.84257-4.7565 0.24404-5.5732 0.4397-7.48 1.7919-3.1132 2.2077-4.1357 4.4817-4.1357 9.197 0 4.3034 0.79171 6.7641 2.7565 8.5674 1.9518 1.7915 3.9777 2.3525 9.7691 2.7053 4.1683 0.25394 5.5986 0.55508 6.6812 1.4067 1.4732 1.1588 2.8618 3.9391 2.8618 5.7299 0 1.0494-0.31108 1.0929-7.6702 1.0714-8.5072-0.0248-10.959-0.59693-15.046-3.5106-2.9946-2.135-5.2286-5.4207-6.6333-9.7561l-1.1254-3.4734-6.8434 10.762c-12.198 19.182-20.188 28.743-26.754 32.015-6.3532 3.1659-14.455 1.2047-17.172-4.1567-1.1656-2.3003-1.3313-3.3215-1.3103-8.0739 0.05302-11.959 5.5101-28.229 15.836-47.211 4.9011-9.0102 5.4948-10.849 3.7971-11.757-4.3848-2.3467-13.587 6.0066-24.579 22.311-5.7669 8.5542-9.0334 15.1-16.383 32.828-3.2543 7.8504-6.2142 14.749-6.5775 15.331-1.2452 1.9939-3.2702 2.3846-6.0308 1.1634-5.0887-2.251-7.3088-6.5399-7.3088-14.119 0-11.04 4.6187-25.147 14.599-44.589 5.7929-11.285 6.269-13.084 3.5449-13.396-3.1138-0.35742-10.011 5.1243-15.418 12.254-4.076 5.3743-11.668 16.515-14.693 21.56-1.3311 2.2203-5.8326 10.819-10.004 19.108-8.6444 17.18-10.408 20.185-11.847 20.185-0.55419 0-1.9523-0.68696-3.1069-1.5266z" stroke-width="2.0344"/>
   <path transform="matrix(.26458 0 0 .26458 -23.394 125.96)" d="m194.93 110.07c-4.8801-1.0334-9.8404-5.2056-12.044-10.131-0.89515-2.0004-1.1347-3.6673-1.1734-8.1653-0.0453-5.258 0.0636-5.8735 1.5619-8.8346 2.055-4.061 5.3937-7.3946 9.2181-9.2039 2.7006-1.2776 3.8375-1.4562 11.028-1.7325l8.0169-0.30811v1.6712c0 4.6535-2.4952 6.3267-10.012 6.7139-7.9531 0.40968-10.85 2.3825-12.06 8.2142-1.1051 5.3233 0.47326 10.111 4.1666 12.639 1.7503 1.1981 2.4952 1.3364 7.1991 1.3364 4.4936 0 5.4648-0.16261 6.7658-1.1328 2.3402-1.7452 3.3609-3.975 3.9419-8.611 0.29301-2.338 0.79026-4.8805 1.105-5.6499 0.59422-1.4526 3.4626-3.3206 6.0262-3.9246l1.4802-0.34875v14.005c0 13.759-0.0194 14.005-1.1033 14.005-1.1979 0-4.0501-1.3095-5.3789-2.4696-0.70387-0.61448-1.3418-0.51841-4.186 0.63039-3.7725 1.5238-10.603 2.1321-14.551 1.296z" stroke-width="2.0344"/>
   <path transform="matrix(.26458 0 0 .26458 -23.394 125.96)" d="m163.59 95.364c-1.2572-0.21831-1.834-0.5295-2.6447-1.4269-0.92988-1.0293-1.3201-2.4276-1.046-3.7481 0.22757-1.0962 0.94465-2.2136 1.8209-2.8376 0.79658-0.56722 2.156-0.68737 9.0431-0.79924 6.1262-0.09951 7.5772-0.01256 8.0736 0.48381 0.27958 0.27958 0.27774 0.39941-0.0258 1.6871-0.69319 2.9404-2.2181 5.1379-4.265 6.1462l-1.2179 0.59997-4.3856 0.03126c-2.4121 0.01719-4.8207-0.04429-5.3525-0.13663z" stroke-width=".68992"/>
  </g>
  <g fill="#c49b40">
   <path transform="matrix(.26458 0 0 .26458 -23.394 125.96)" d="m268.99 110.69c-4.1845-0.26668-6.4015-0.84801-9.0437-2.3713-2.794-1.6109-5.0561-3.9953-6.5627-6.9178-1.7812-3.4551-2.3254-6.3523-2.1601-11.5 0.0709-2.2069 0.17724-3.1 0.48349-4.0594 2.1788-6.8259 7.8401-12.2 14.312-13.586 1.7212-0.36865 13.868-0.57684 14.938-0.25605 0.83097 0.24896 0.98382 0.65773 0.81213 2.1719-0.26255 2.3156-2.0955 4.687-4.2654 5.5184-0.91435 0.35032-1.5879 0.4213-5.2474 0.553-4.7474 0.17084-6.1334 0.4036-8.066 1.3546-2.2486 1.1065-4.081 3.561-4.6318 6.2044-0.2955 1.4182-0.29406 5.8936 2e-3 7.3016 0.6886 3.2711 3.095 5.7417 6.4148 6.586 0.85674 0.21787 2.4633 0.32894 6.0069 0.41528l4.8373 0.11786 1.0952 0.798c1.4316 1.0431 2.0091 1.7033 2.6554 3.0362 0.58733 1.2111 0.90415 2.5948 0.90415 3.9488v0.88779l-5.0655-0.0265c-2.786-0.0146-6.1249-0.094-7.4198-0.17653z" stroke-width=".68992"/>
   <g stroke-width=".46056">
    <path transform="matrix(.26458 0 0 .26458 -23.394 125.96)" d="m50.255 34.615c-1.8952-0.42789-3.913-1.5979-5.4725-3.1731-2.0914-2.1126-2.3125-3.5112-0.98307-6.2178 1.4211-2.8931 3.794-5.6737 5.5527-6.5065 0.60828-0.28808 0.80532-0.31704 2.1325-0.31351 1.3418 0.0036 1.5385 0.03452 2.3877 0.37564 1.1927 0.4791 2.6032 1.4547 3.7676 2.606 1.7917 1.7714 2.245 2.7445 2.2423 4.8133-0.0015 1.1829-0.04593 1.4659-0.37764 2.408-0.20673 0.58718-0.56041 1.3736-0.78595 1.7475-0.98404 1.6315-2.5948 3.1653-4.186 3.9858-0.67773 0.34951-0.83813 0.38033-2.1342 0.41011-0.86568 0.01989-1.685-0.03185-2.1435-0.13536z"/>
    <path transform="matrix(.26458 0 0 .26458 -23.394 125.96)" d="m74.637 44.724c-1.4982-0.23891-2.467-0.52342-3.5447-1.041-1.7145-0.82342-2.1329-1.5383-2.3851-4.0756-0.09734-0.97908-0.09565-1.7927 0.0063-3.0464 0.22534-2.7703 0.71977-4.563 1.5191-5.508 1.3992-1.6542 5.4036-2.7314 8.1127-2.1825 1.3535 0.27425 2.3338 0.78815 3.242 1.6996 1.5009 1.5062 2.2516 3.2327 2.3434 5.3897 0.15537 3.6507-1.4728 6.8152-4.1727 8.1098-1.6637 0.79777-3.084 0.97926-5.1211 0.65442z"/>
    <path transform="matrix(.26458 0 0 .26458 -23.394 125.96)" d="m99.679 42.696c-0.72715-0.22171-2.2821-1.9209-2.958-3.2322-0.64535-1.2522-1.3118-3.1548-1.6158-4.613-0.2795-1.3406-0.28763-3.355-0.01672-4.1431 0.58541-1.703 2.5504-3.1988 5.2077-3.9644 1.1468-0.33038 3.5668-0.46059 4.5155-0.24296 2.6048 0.59753 5.0051 3.0572 5.6665 5.8066 0.26702 1.11 0.26343 2.9265-8e-3 3.9452-0.93868 3.5253-4.8395 6.2663-9.2684 6.5128-0.6208 0.03455-1.2817 0.0046-1.5229-0.06893z"/>
    <path transform="matrix(.26458 0 0 .26458 -23.394 125.96)" d="m124.42 28.817c-0.74213-0.12853-2.0858-0.6482-3.0047-1.1621-3.5442-1.982-5.9061-6.0072-5.4082-9.2167 0.34669-2.2344 2.0849-4.2242 4.8642-5.5682 3.2788-1.5856 6.2144-0.9694 9.1268 1.9157 1.6715 1.6558 2.3425 3.0952 2.3425 5.0248 0 1.8448-0.41336 3.035-1.7461 5.0274-0.84619 1.2651-2.44 2.9253-3.2694 3.4057-0.55433 0.32107-1.7944 0.71137-2.1691 0.68274-0.10321-0.0079-0.43441-0.05707-0.736-0.1093z"/>
    <path transform="matrix(.26458 0 0 .26458 -23.394 125.96)" d="m235 111.43c-4.7342-0.49394-7.9247-3.0675-9.606-7.7485-0.60741-1.6911-0.74586-2.7726-0.74586-5.8262 0-3.0223 0.11783-3.9626 0.74637-5.9556 1.0269-3.2562 3.289-5.8316 6.13-6.9791 2.4445-0.98738 5.8474-1.2243 8.5545-0.59568 3.5503 0.82446 6.1171 2.7876 7.6533 5.8535 1.1755 2.346 1.544 4.4585 1.4244 8.1644-0.11674 3.6166-0.54671 5.6702-1.5409 7.36-1.4578 2.4776-4.0932 4.4858-7.0518 5.3734-0.78516 0.23555-3.1048 0.50179-4.1017 0.47077-0.26808-8e-3 -0.92611-0.0609-1.4623-0.11688zm4.5742-4.1671c1.2338-0.54111 2.8607-2.155 3.7099-3.6803 0.80448-1.445 0.94588-2.1478 1.0084-5.0122 0.10076-4.6159-0.41019-6.5047-2.2858-8.4493-1.7698-1.835-4.0152-2.515-6.6987-2.0288-2.9141 0.52799-4.7526 2.46-5.6957 5.9855-0.30447 1.1382-0.32595 1.3874-0.32553 3.7775 5.1e-4 2.913 0.14297 3.6898 1.0056 5.4835 1.1878 2.4699 2.8159 3.763 5.195 4.1264 0.82925 0.12664 3.6557-0.0133 4.0868-0.20236z"/>
   </g>
  </g>
  <g stroke-width=".46056">
   <path transform="matrix(.26458 0 0 .26458 -23.394 125.96)" d="m234.99 79.254c-2.9494-3.5637-3.8732-4.7391-3.7901-4.8222 0.0415-0.04148 1.4189-0.10216 3.0609-0.13486l2.9854-0.05945 0.6239 1.3268c1.6231 3.4519 2.5482 5.6935 2.4076 5.8341-0.0394 0.03944-0.80532 0.10473-1.702 0.14509l-1.6302 0.07339z" fill="#afb0b5"/>
   <path transform="matrix(.26458 0 0 .26458 -23.394 125.96)" d="m270.83 110.7c-2.7737-0.0971-3.4753-0.16113-5.3851-0.4916-3.3879-0.58625-6.0978-1.9694-8.6369-4.4082-1.4743-1.4161-2.6094-2.9618-3.5148-4.7862-1.4891-3.0006-2.0157-5.5124-2.018-9.6252-2e-3 -4.1577 0.29371-5.5857 1.768-8.5299 1.0343-2.0655 2.1222-3.58 3.7733-5.2531 2.5616-2.5958 5.4485-4.326 8.5161-5.1042 1.5707-0.39845 5.3966-0.57888 11.185-0.52754 4.3196 0.03832 4.481 0.04823 4.8133 0.29583 0.30373 0.2263 0.3481 0.34498 0.38043 1.0174 0.08 1.6645-0.58333 3.2679-1.9451 4.7015-0.93426 0.98353-2.0419 1.6447-3.1412 1.875-0.3646 0.07639-2.3387 0.22073-4.3868 0.32076-4.1418 0.20227-5.4854 0.37375-6.9277 0.88415-2.8676 1.0148-4.8037 3.1895-5.7704 6.4817-0.11568 0.39395-0.16158 1.4748-0.16302 3.8385-2e-3 3.7363 0.0583 4.1207 0.93085 5.91 0.68906 1.413 2.1533 2.8912 3.6018 3.6361 1.9169 0.98579 1.9012 0.98392 11.092 1.318l1.8566 0.0675 1.0114 0.76287c0.55625 0.41957 1.2697 1.0502 1.5855 1.4014 1.1385 1.2663 1.9152 3.4252 1.9152 5.3239v1.0163l-4.0517-0.0198c-2.2284-0.0109-5.1484-0.0582-6.4888-0.10511z" fill="#afb0b5"/>
   <path transform="matrix(.26458 0 0 .26458 -23.394 125.96)" d="m235.57 79.843c-3.0608-3.6852-4.2804-5.2615-4.1312-5.3397 0.0814-0.04264 1.4148-0.11141 2.963-0.15282l2.815-0.07528 1.0535 2.3055c1.1592 2.5368 1.9073 4.3353 1.9073 4.5853 0 0.19227-0.38798 0.26007-1.9801 0.34603l-1.1881 0.06414z" fill="#c49b40"/>
  </g>
 </g>
</svg>
